<?xml version="1.0" standalone="no"?>
<!DOCTYPE svg PUBLIC "-//W3C//DTD SVG 20010904//EN"
 "http://www.w3.org/TR/2001/REC-SVG-20010904/DTD/svg10.dtd">
<svg version="1.0" xmlns="http://www.w3.org/2000/svg"
 width="192.000000pt" height="192.000000pt" viewBox="0 0 192.000000 192.000000"
 preserveAspectRatio="xMidYMid meet">

<g transform="translate(0.000000,192.000000) scale(0.100000,-0.100000)"
fill="#000000" stroke="none">
<path d="M1520 1765 c-7 -9 -10 -27 -7 -44 l6 -28 -127 -6 c-70 -4 -188 -7
-263 -7 l-136 0 -6 29 c-8 37 -39 56 -67 41 -11 -6 -21 -17 -21 -25 -1 -8 -2
-21 -3 -27 -1 -16 -131 -25 -363 -27 l-163 -1 0 23 c0 27 -17 47 -40 47 -20 0
-50 -31 -50 -52 0 -8 -12 -20 -26 -26 -32 -15 -31 -62 3 -77 l23 -10 0 -317
c0 -265 -2 -318 -14 -318 -8 0 -24 -8 -37 -19 -20 -16 -22 -22 -11 -45 6 -14
23 -28 37 -32 15 -4 27 -15 30 -28 2 -11 7 -106 9 -211 3 -104 8 -213 12 -241
l6 -51 -41 -7 c-32 -5 -44 -13 -53 -32 -11 -23 -10 -29 11 -45 13 -11 34 -19
46 -19 15 0 26 -8 30 -19 13 -41 71 -37 81 5 l6 24 243 0 c134 0 250 3 259 6
11 4 19 -2 25 -19 18 -46 76 -46 87 -1 l6 24 264 0 264 0 0 -24 c0 -14 10 -32
22 -40 19 -13 25 -14 43 -2 11 7 22 26 25 42 4 22 12 30 39 35 72 15 64 89
-10 89 l-29 0 -2 163 c-5 356 -6 340 25 359 15 10 27 27 27 38 0 12 -11 28
-27 37 l-28 15 2 321 c2 270 5 323 18 337 22 25 18 56 -10 74 -14 10 -25 26
-25 39 0 53 -60 88 -90 52z m-630 -473 c0 -161 -3 -306 -7 -322 l-5 -30 -254
0 -254 0 0 315 0 315 78 1 c42 1 140 5 217 9 77 4 159 7 183 6 l43 -1 -1 -293z
m640 -27 l0 -325 -281 0 -281 0 7 23 c5 12 10 158 12 325 l5 302 269 0 269 0
0 -325z m-648 -682 c2 -142 3 -259 3 -260 0 -1 -108 -3 -240 -4 l-240 -2 -8
59 c-4 32 -10 150 -13 262 l-6 202 250 0 251 0 3 -257z m648 140 c0 -65 3
-182 7 -260 l6 -143 -280 0 -280 0 -7 46 c-3 26 -6 143 -6 260 l0 214 280 0
280 0 0 -117z"/>
<path d="M575 1488 c-3 -7 -4 -107 -3 -222 3 -189 5 -210 21 -220 46 -28 56
67 38 349 -6 94 -7 100 -29 103 -12 2 -24 -3 -27 -10z"/>
<path d="M1052 1498 c-17 -17 -15 -123 2 -157 20 -38 55 -51 135 -51 79 0 75
6 86 -115 9 -95 22 -142 41 -149 26 -10 47 14 40 47 -9 42 -36 293 -38 357 -3
48 -6 55 -25 58 -30 4 -45 -28 -42 -86 l3 -47 -61 -3 c-80 -4 -95 10 -92 85 2
38 -2 57 -12 64 -19 12 -23 11 -37 -3z"/>
<path d="M524 763 c-47 -45 -72 -98 -57 -121 5 -9 35 -23 66 -30 32 -8 57 -18
57 -22 0 -4 -21 -42 -47 -85 -36 -60 -44 -81 -36 -94 22 -35 40 -22 93 66 29
48 70 116 92 150 23 36 38 71 36 83 -4 30 -77 80 -124 86 -35 5 -44 1 -80 -33z
m120 -48 c18 -14 18 -16 2 -40 -13 -20 -22 -24 -39 -19 -77 24 -82 32 -40 62
28 20 46 20 77 -3z"/>
<path d="M1225 711 c-32 -39 -61 -71 -65 -71 -17 0 -78 -91 -73 -109 6 -25 45
-61 112 -105 64 -42 74 -39 146 42 59 65 56 82 -23 142 l-59 45 29 41 c31 44
34 77 6 82 -10 2 -37 -23 -73 -67z m66 -208 c-14 -18 -31 -33 -37 -33 -17 0
-94 59 -94 71 0 6 14 24 31 40 l30 28 48 -37 47 -37 -25 -32z"/>
</g>
</svg>
